<svg xmlns="http://www.w3.org/2000/svg" width="256" height="256"><path fill-opacity=".016" d="M0 128.004v128.004l128.25-.254 128.25-.254.254-127.75L257.008 0H0v128.004m.485.496c0 70.4.119 99.053.265 63.672.146-35.38.146-92.98 0-128C.604 29.153.485 58.1.485 128.5" fill="#1976D2" fill-rule="evenodd"/><path fill-opacity=".115" d="M124 19.881c0 .485-2.138 1.415-4.75 2.066-10.351 2.582-19.916 11.082-22.272 19.793-1.242 4.593-5.058 9.147-7.728 9.224-.687.02-1.25.384-1.25.809 0 .425-1.584 1.625-3.52 2.668l-3.52 1.895-2.805-2.688c-7.14-6.84-17.396-4.961-22.03 4.036-2.735 5.311-.049 14.27 5.074 16.919 3.812 1.971 3.133 3.669-1.866 4.658-5.579 1.103-9.422 5.353-10.075 11.142-.416 3.691-1.153 5.042-3.886 7.127-2.808 2.142-3.372 3.22-3.372 6.453 0 3.142.553 4.274 2.904 5.949 1.598 1.137 3.652 2.068 4.566 2.068 2.006 0 5.751-1.882 6.765-3.4.404-.605.741.583.75 2.641.013 3.182-.506 4.078-3.473 6-1.918 1.242-3.493 3.046-3.5 4.009-.013 1.876-2.489 2.405-3.512.75-.34-.55-1.529-1-2.642-1-1.181 0-1.847-.521-1.598-1.25.235-.687 1.651-1.199 3.147-1.137 1.746.073 2.374-.232 1.755-.851-1.318-1.318-6.626-.029-8.417 2.045-2.288 2.648-2.767 6.249-1.228 9.225 1.628 3.15 3.297 3.968 8.095 3.968 2.681 0 4.124.769 6.48 3.452 1.667 1.899 3.903 3.729 4.97 4.068 2.864.909 2.373 1.789-2.031 3.638-4.862 2.042-8.024 6.905-8.024 12.342 0 11.207 12.151 17.304 21.603 10.84 2.984-2.04 4.929-2.609 8.35-2.443 2.515.122 6.112-.528 8.246-1.49 3.755-1.693 3.84-1.682 10.561 1.416 16.78 7.734 38.425 7.991 56.445.669 3.974-1.615 6.402-2.151 6.631-1.464 1.386 4.159 7.534 5.947 21.416 6.229 5.256.107 6.063-.177 9.226-3.242l3.466-3.36 2.439 2.632c4.461 4.814 9.737 4.501 13.198-.782 1.686-2.573 1.208-7.895-.822-9.15-.692-.427-.89.062-.551 1.358.513 1.963.409 1.978-3.343.505-2.13-.837-3.872-2.128-3.872-2.87 0-1.71-.996-1.666-3.397.152-2.242 1.697-3.603 1.121-3.603-1.524 0-2.82-5.642-8.738-9.042-9.485-1.627-.358-2.958-.96-2.958-1.338 0-.379 1.167-2.407 2.594-4.507l2.595-3.817 2.245 2.109c4.039 3.795 11.711 4.658 16.87 1.899 3.262-1.745 5.688-7.029 5.692-12.397.003-4.324-.452-5.526-3.129-8.264-3.585-3.668-6.187-4.546-11.857-4.006l-4.01.383v-8.384c0-7.618.16-8.311 1.75-7.592.963.435 4 .952 6.75 1.148 9.027.646 15.457-6.102 14.005-14.697-.713-4.219-5.489-10.043-8.199-9.998-1.633.028-1.615.14.194 1.17 2.718 1.549 5.5 4.813 5.5 6.453 0 2.205-3.477 1.532-6.009-1.162-1.412-1.504-3.029-2.296-4.033-1.978-1.877.596-3.701-1.196-3.655-3.592.021-1.087.722-1.448 2.246-1.156 1.219.233 2.521-.069 2.893-.671 1.142-1.848-4.209-1.254-8.522.947-2.2 1.122-4.504 3.147-5.121 4.5-.616 1.352-1.409 2.459-1.763 2.459-.353 0-1.537-1.848-2.631-4.108l-1.99-4.107 3.366-3.366c3.979-3.979 4.069-7.464.219-8.528-1.375-.381-2.01-.736-1.411-.791 1.307-.12 3.411-4.46 3.411-7.036 0-1.013-.787-2.701-1.75-3.75-.963-1.05-1.375-1.346-.917-.659.457.687.682 1.945.5 2.797-.287 1.335-.78 1.275-3.583-.437-3.81-2.328-4.13-3.706-1-4.309 1.723-.332 1.53-.466-.826-.57-3.589-.159-7.424 3.291-7.424 6.678 0 2.731-1.008 2.754-4.381.101-1.458-1.147-4.764-2.388-7.345-2.757l-4.695-.671-1.12-5.592c-.616-3.075-2.677-8.697-4.579-12.493-2.915-5.816-4.161-7.25-7.92-9.112-2.453-1.216-5.004-2.678-5.668-3.25-1.463-1.26-14.292-1.403-14.292-.159M66.5 53c-.916 1.482.355 3 2.512 3 1.042 0 3.011.509 4.377 1.131 3.275 1.493 6.352.467 4.415-1.47C74.455 52.313 67.881 50.765 66.5 53m60.155.829c-.91 1.006-1.655 3.262-1.655 5.014 0 2.522.678 3.6 3.25 5.168 4.644 2.832 5.326 2.462 2.234-1.212-2.201-2.616-2.6-3.896-2.184-7 .28-2.09.397-3.799.26-3.799-.138 0-.995.823-1.905 1.829m-28.64 5.362c-.008.93.435 1.969.985 2.309 1.266.782 1.266-.542 0-2.5-.835-1.293-.971-1.266-.985.191m18.706 14.798c-3.698.5-3.744.559-2.193 2.761C117.362 80.772 126 79.012 126 74.413c0-1.471-1.141-1.523-9.279-.424m57.496.761c7.745 15.135 9.812 26.427 7.364 40.25-2.245 12.687-7.698 22.981-16.639 31.416-3.907 3.685-8.304 7.211-9.772 7.835-1.469.625-3.345 1.666-4.17 2.314-3.313 2.601-14.825 5.737-22.769 6.203-10.31.604-18.667-.987-27.651-5.267-3.814-1.816-7.454-3.103-8.09-2.859-1.459.56-1.503 3.509-.073 4.849 1.529 1.432 11.534 5.411 17.799 7.079 6.869 1.828 22.88 1.822 29.824-.012 7.567-1.998 16.883-6.742 20.46-10.419 1.65-1.696 3.336-3.096 3.747-3.111 2.028-.076 13.97-13.625 16.119-18.288 6.4-13.887 8.733-27.6 6.693-39.337-1.28-7.362-5.639-19.42-7.46-20.638-1.446-.967-5.875-.979-5.382-.015M68.5 78c-.816 1.32.277 3 1.952 3C71.567 81 73 78.985 73 77.418c0-.876-3.911-.371-4.5.582m-8.378 2.904C58.334 82.036 59.563 84 62.059 84c1.068 0 2.841.9 3.941 2 1.928 1.928 6.037 2.789 5.965 1.25-.049-1.031-2.885-5.922-2.93-5.051-.019.384-1.596.047-3.503-.75-4.05-1.692-3.661-1.653-5.41-.545m90.818 7.823c-3.493 2.406-4.616 3.981-7.962 11.161-2.052 4.403-2.947 7.822-2.879 11l.099 4.612 1.283-4c2.338-7.289 6.346-15.402 9.621-19.478 3.602-4.482 3.535-5.843-.162-3.295M130.423 96.5c-2.233 2.475-4.595 4.5-5.248 4.5-.654 0-2.153-1.11-3.332-2.466-2.203-2.533-3.843-2.522-3.843.025 0 .793.659 1.441 1.465 1.441 2.022 0 3.535 3.181 3.535 7.434 0 3.368.184 3.566 3.3 3.566 3.561 0 5.697-1.479 5.706-3.95.003-.852.474-3.237 1.047-5.3.841-3.031 1.511-3.75 3.494-3.75 1.349 0 2.453-.35 2.453-.777 0-1.13-2.99-5.223-3.815-5.223-.386 0-2.529 2.025-4.762 4.5m-81.881 1.432c-.77 1.246-.845 1.201 2.708 1.622 1.513.179 2.75-.097 2.75-.614a.932.932 0 0 0-.918-.94c-.505 0-1.585-.256-2.399-.568-.814-.313-1.778-.088-2.141.5m14.518 8.495c-1.982 2.389-.924 7.021 1.69 7.393 1.96.278 2.25-.125 2.25-3.128 0-4.154-2.123-6.453-3.94-4.265m132.32 10.025c-.808 2.106.407 3.548 2.99 3.548 1.239 0 3.251.93 4.472 2.067 2.561 2.386 5.353 2.227 5.726-.326.169-1.154-1.203-2.615-3.993-4.25-4.777-2.8-8.364-3.205-9.195-1.039m-134.13.21c-1.501.606-1.67 2.338-.229 2.338.562 0 2.83 1.197 5.041 2.66 5.319 3.52 7.388 1.95 3.371-2.558-2.571-2.886-5.162-3.659-8.183-2.44m30.802 3.701c-.494 1.3-1.813 2.603-2.93 2.895-2.816.736-3.877 5.415-1.718 7.577 1.283 1.285 3.994 1.74 11.879 1.993 14.89.477 17.67-1.156 14.524-8.531-2.476-5.801-3.458-6.297-12.487-6.297-7.878 0-8.422.139-9.268 2.363m47.116-.042c.29 2.464 1.216 3.175 7.332 5.634 3.85 1.547 7.375 2.591 7.833 2.319.972-.577-3.867-3.69-7.402-4.761-1.337-.406-3.706-1.925-5.263-3.375l-2.833-2.638.333 2.821m-66.014 16.117c.191.917.796 1.644 1.346 1.615 1.484-.079 1.212-2.316-.346-2.835-.841-.28-1.215.177-1 1.22M76 141.5c0 .933.944 1.5 2.5 1.5 1.375 0 2.5.45 2.5 1s.45 1 1 1c2.089 0 .886-3.093-1.565-4.025-3.516-1.336-4.435-1.228-4.435.525m-13 .5c0 .55 1.125 1 2.5 1s2.5-.45 2.5-1-1.125-1-2.5-1-2.5.45-2.5 1m-4.208 3.057c-2.567 1.496-1.126 3.627 2.893 4.279 1.959.318 4.305 1.25 5.212 2.071.929.84 2.193 1.155 2.896.721 2.072-1.281-5.193-8.22-8.477-8.098-.449.017-1.585.479-2.524 1.027m119.753 1.287c-2.189 1.6-1.278 3.656 1.62 3.656 1.125 0 3.399 1.138 5.053 2.53 2.325 1.956 3.315 2.272 4.373 1.395 3.87-3.212-6.907-10.608-11.046-7.581m23.268 8.339c.721.289 1.584.253 1.916-.079.332-.332-.258-.568-1.312-.525-1.165.048-1.402.285-.604.604m-33.828 2.271c2.726 2.094 3.581 1.963 2.67-.411-.326-.849-1.619-1.533-2.874-1.521l-2.281.022 2.485 1.91m58.104 28.439c-.637.767-1.493 3.354-1.904 5.75l-.747 4.357-4.989-.325c-3.94-.257-5.573.135-7.768 1.861-2.716 2.136-2.825 2.144-4.835.325-1.552-1.405-3.618-1.861-8.428-1.861-8.246 0-10.682 2.195-13.04 11.751L182.713 214H170.05l.455-2.75c4.043-24.449 4.035-24.75-.611-24.085-2.137.307-2.476 1.186-3.982 10.335-3.247 19.716-3.223 19.189-.965 21.447 1.72 1.72 3.319 2.053 9.853 2.053 4.308 0 8.289-.489 8.893-1.093.785-.785 1.661-.788 3.112-.011 2.21 1.182 14.939 1.002 16.945-.24.688-.426 1.268-1.76 1.29-2.965.037-2.022.155-1.98 1.525.546 1.766 3.254 3.838 3.838 12.278 3.463 7.396-.328 7.64-.601 8.672-9.7 1.212-10.686 2.003-11.075 3.402-1.671.703 4.723 1.909 9.112 2.68 9.752 2.043 1.695 1.73 3.501-1.097 6.328-2.946 2.946-3.668 10.591-1 10.591.825 0 1.5-.744 1.5-1.654 0-.91 1.734-3.138 3.853-4.952 2.751-2.355 5.611-6.861 10-15.755 5.918-11.994 7.284-16.818 5.138-18.145-2.419-1.495-4.68.949-7.915 8.553-4.97 11.686-5.782 11.788-7.149.902-.996-7.934-2.302-10.346-5.191-9.59-1.75.457-1.848.088-1.209-4.553.518-3.77.349-5.27-.666-5.913-1.871-1.185-2.436-1.11-3.772.5m-116.434 1.357c-.264.963-.759 3.403-1.098 5.422l-.619 3.673-5.414-.127c-5.695-.133-8.843 1.56-10.066 5.414-.872 2.747-1.92 2.285-3.001-1.326-1.102-3.68-5.063-5.287-9.176-3.723-1.39.529-4.004.684-5.807.346-3.874-.727-3.863-.751-5.985 12.197-1.81 11.044-1.81 11.037.011 11.736 3.152 1.209 4.286-.511 5.577-8.459 1.378-8.486 1.892-9.355 6.169-10.429 3.739-.938 4.337 1.064 2.96 9.907-.874 5.616-.84 7.391.165 8.406 2.714 2.741 5.463-.536 5.694-6.787.073-1.974.414-1.592 1.621 1.82 1.91 5.401 4.853 6.983 10.291 5.532 2.441-.652 4.467-.683 5.533-.086 3.248 1.817 3.274 1.733 7.508-24.454.684-4.228.974-8.391.644-9.25-.813-2.119-4.412-1.984-5.007.188m-104.134 1.5c-.229.688-1.14 5.975-2.024 11.75-.884 5.775-2.032 10.65-2.552 10.833-.52.184-.945 1.82-.945 3.636 0 2.774.545 3.562 3.401 4.917 4.985 2.366 16.207 2.215 17.739-.238 1.125-1.802 1.206-1.802 3.008 0 2.035 2.035 6.894 2.435 9.918.817 1.313-.703 2.542-.71 3.829-.021 2.775 1.485 3.845-.377 5.171-8.999 1.485-9.668 2.299-10.43 1.401-1.313-.643 6.533-.516 7.319 1.511 9.346 1.841 1.841 2.914 2.109 6.368 1.591 2.285-.342 5.782-.603 7.771-.581 3.615.041 3.618.037 4.745-5.724.621-3.17 1.419-8.576 1.776-12.014.643-6.216.633-6.25-1.928-6.25-2.903 0-3.175.584-4.647 9.939-1.14 7.249-2.413 9.042-6.636 9.349-2.727.197-2.924-.027-2.879-3.288.027-1.925.408-6.312.848-9.75l.8-6.25h-2.579c-1.881 0-2.74.643-3.175 2.377l-.597 2.377-2.262-2.262c-3.071-3.071-9.344-4.037-13.89-2.137-4.304 1.798-6.898 6.257-7.649 13.145l-.544 5-6.398.302c-3.52.165-6.776-.076-7.236-.536-.461-.461.072-6.35 1.185-13.088 1.112-6.737 1.755-12.684 1.427-13.214-.861-1.393-4.467-1.185-4.957.286m119.979 7.892c-1.65.461-4.415.576-6.144.256l-3.144-.581-1.198 7.342c-.659 4.037-1.581 9.126-2.049 11.308-.893 4.169.077 6.533 2.682 6.533 1.782 0 2.979-3.156 3.854-10.161.38-3.043 1.052-6.115 1.492-6.828.881-1.425 10.101-3.21 11.183-2.164.371.359 1.129 3.967 1.684 8.018.691 5.05 1.658 8.058 3.077 9.567l2.068 2.202-3.366 3.933c-2.725 3.184-3.275 4.552-2.889 7.183.475 3.234 2.25 4.613 2.25 1.747 0-.826 1.873-3.189 4.161-5.25 3.064-2.758 5.842-7.198 10.534-16.827 6.438-13.215 7.05-16.42 3.135-16.42-1.489 0-2.944 2.148-6.1 9-2.28 4.95-4.631 9-5.223 9-.593 0-1.564-3.629-2.158-8.065-.594-4.436-1.478-8.429-1.964-8.874-1.401-1.28-8.595-1.836-11.885-.919m-94.806 6.092c-2.007 1.468-3.928 8.303-3.096 11.016.341 1.111 1.538 1.75 3.278 1.75 4.604 0 6.122-1.902 6.386-8 .225-5.197.1-5.516-2.263-5.792-1.375-.161-3.313.301-4.305 1.026m67.88.684c-1.073 1.186-1.801 3.765-1.905 6.75-.164 4.687-.079 4.84 2.831 5.093 4.315.374 5.351-.701 6.498-6.748.785-4.144.731-5.568-.239-6.183-2.183-1.386-5.385-.901-7.185 1.088m95.764-.931c-2.169.886-2.698 1.944-3.762 7.513-.82 4.296.511 5.86 4.281 5.031 2.572-.564 3.292-1.371 4.184-4.684 1.964-7.293.381-9.939-4.703-7.86m19.828 1.313c-1.522 1.834-2.414 8.935-1.326 10.557.626.933 1.884 1.143 4.024.673 3.779-.83 3.736-.763 4.616-7.28l.708-5.25h-3.472c-1.909 0-3.956.585-4.55 1.3m-124.087 2.283c.048 1.165.285 1.402.604.605.289-.722.253-1.585-.079-1.917-.332-.332-.568.258-.525 1.312" fill="#1976D2" fill-rule="evenodd"/><path fill-opacity=".27" d="M127 19.981c0 .539-1.237 1.26-2.75 1.6-8.347 1.88-10.564 2.806-15.375 6.421-6.004 4.511-10.535 10.671-11.455 15.571-.468 2.499-1.935 4.33-5.808 7.255-8.771 6.622-13.649 8.68-21.47 9.058-2.048.099-2.27.469-1.681 2.813.756 3.015 4.412 6.809 7.507 7.791 2.148.681 2.725 2.964 1.017 4.019-1.711 1.058-4.252 7.824-4.087 10.883.085 1.59-.466 3.615-1.225 4.5-4.076 4.749-4.752 24.211-.984 28.344 1.199 1.317 2.263 4.164 2.54 6.804.669 6.358 3.562 11.904 7.385 14.16 2.051 1.21 3.491 3.002 3.896 4.847.662 3.011 4.701 6.953 7.125 6.953.751 0 1.365.36 1.365.801 0 .877 7.458 4.823 13 6.878 1.925.714 7.1 1.812 11.5 2.44 19.248 2.747 40.223-5.973 52.005-21.619 13.045-17.324 15.222-39.01 5.947-59.25-1.827-3.987-3.014-7.294-2.637-7.347.377-.053 2.334-.022 4.349.07 6.136.28 11.836-3.768 11.836-8.407 0-1.053-.929-1.566-2.833-1.566-1.559 0-3.171-.337-3.584-.75-.412-.412-1.162-.806-1.666-.875-.504-.069-1.276-.181-1.714-.25-.438-.069-3.88-2.15-7.648-4.625s-8.022-4.507-9.453-4.515c-4.026-.024-5.09-1.211-6.736-7.514-3.253-12.459-9.211-20.89-15.675-22.183-1.575-.315-3.097-1.183-3.384-1.93-.605-1.576-9.307-1.929-9.307-.377m-22.536 21.355c-3.638 3.638-3.845 5.664-.579 5.664 1.89 0 5.437 3.42 6.406 6.175.864 2.458-1.073 8.527-2.951 9.248-.892.342-2.484.349-3.538.014-2.288-.726-4.229-5.19-2.961-6.809.486-.62 1.179-2.365 1.54-3.878.865-3.621-1.675-3.757-3.997-.214-1.297 1.979-1.524 3.848-1.037 8.512.764 7.305 3.539 13 7.988 16.394 4.872 3.716 6.302 3.303 3.719-1.076l-2.144-3.633 2.114-1.97c1.587-1.478 2.783-1.782 4.795-1.215 1.475.415 5.944.671 9.931.57 5.349-.137 7.25.153 7.25 1.105 0 3.1-2.09 8.121-4.111 9.873-1.52 1.318-1.763 1.939-.792 2.019 6.114.502 15.241-4.117 19.181-9.707 2.324-3.297 3.76-4.318 6.738-4.795 3.124-.499 3.98-1.163 4.898-3.796 1.392-3.993.024-5.884-2.925-4.042-3.083 1.925-3.766 1.504-4.488-2.769-.693-4.099-4.55-8.006-7.905-8.006-1.959 0-1.959-.035.001 3.893 1.799 3.606 1.349 6.71-1.437 9.923-2.353 2.712-4.166 2.754-7.448.172-3.3-2.596-4.386-7.31-2.387-10.361 1.826-2.787.7-5.567-1.286-3.174-.706.851-1.749 1.547-2.316 1.547-.568 0-.258-.856.689-1.903 1.665-1.839 1.551-1.939-3.395-3-5.833-1.251-10.52-3.419-13.729-6.352l-2.211-2.022-3.613 3.613M132 55c0 .55.423 1 .941 1s1.219-.45 1.559-1c.34-.55-.084-1-.941-1S132 54.45 132 55m-19.25 17.689c-.963.252-1.75.842-1.75 1.312 0 1.561 7.422 6.999 9.554 6.999 2.683 0 6.446-3.978 6.446-6.814 0-2.027-.454-2.178-6.25-2.07-3.437.064-7.037.322-8 .573M165 82.657c-7.428 4.766-20.033 24.966-20.369 32.641-.122 2.797.327 3.185 6.771 5.849 3.796 1.569 7.503 2.853 8.237 2.853 3.952 0 10.169-17.069 10.382-28.5.294-15.772.144-16.157-5.021-12.843m-13.637 4.593c-7.736 5.17-11.581 13.987-12.787 29.322l-.557 7.072 7.931 3.274c4.361 1.801 8.407 2.979 8.99 2.619 1.887-1.166 1.125-3.562-1.443-4.538-7.122-2.708-11.42-5.182-11.96-6.884-1.211-3.815 9.164-25.82 14.415-30.571 2.144-1.941 2.669-3.544 1.161-3.544-.488 0-3.075 1.463-5.75 3.25M128 86.735c0 .496-1.441 2.776-3.201 5.067-2.252 2.929-3.444 3.799-4.019 2.931-.611-.92-1.194-.74-2.299.708-2.108 2.764-1.834 4.93.769 6.072 1.803.791 2.311 1.932 2.555 5.737l.305 4.75h4.322c4.877 0 6.04-.993 7.027-6 1.301-6.597 1.593-7.118 3.622-6.474 1.592.505 1.919.113 1.919-2.304 0-1.678-.88-3.708-2.077-4.791-1.966-1.78-2.231-1.791-5-.202-1.607.923-2.923 1.249-2.923.724 0-.524.48-.953 1.066-.953 1.473 0 .729-5.249-.816-5.756-.687-.226-1.25-.005-1.25.491M189.092 94c-.059.825-.221 6.578-.361 12.784-.209 9.284-.03 10.978 1.007 9.559 1.408-1.925 1.595-17.18.262-21.343-.44-1.375-.849-1.825-.908-1m-62.953 3.033c-1.75 1.458-1.953 1.967-.785 1.967.867 0 2.057-.9 2.646-2 1.314-2.455 1.122-2.452-1.861.033m-67.534 7.717c-.305 1.513-.159 4.325.323 6.25.779 3.104.874 2.793.844-2.75-.037-6.843-.322-7.697-1.167-3.5m50.532 3.765c-3.696 3.779-4.828 5.485-3.642 5.485 1.625 0 10.471-8.641 10.494-10.25.024-1.685-1.759-.445-6.852 4.765M91.182 119.5c-.627 1.375-1.772 2.5-2.546 2.5-1.46 0-4.636 4.119-4.636 6.013 0 .595 1.191 2.186 2.646 3.535 2.51 2.326 3.276 2.452 14.943 2.452 11.37 0 12.409-.159 13.773-2.106 1.295-1.849 1.297-2.609.018-6.233-2.983-8.456-3.309-8.661-13.743-8.661-8.967 0-9.359.094-10.455 2.5m89.761 17.078c-4.337 7.462-4.648 8.235-2.651 6.587 2.29-1.89 6.918-10.034 6.469-11.382-.207-.62-1.925 1.538-3.818 4.795m-93.855 5.318c.422 1.868 1.362 3.774 2.09 4.235 1.994 1.265 16.841 1.452 20.988.264 1.403-.401 4.377-6.185 3.587-6.975-.14-.141-6.37-.405-13.844-.588L86.32 138.5l.768 3.396m27.083 10.28c.44 3.104 5.329 3.402 5.329.324 0-1.452-.775-2.089-2.829-2.324-2.46-.282-2.787-.021-2.5 2m18.496-1.509c-1.447 1.447-.548 3.332 1.583 3.318 2.975-.021 5.177-1.485 4.319-2.873-.748-1.211-4.829-1.519-5.902-.445m94.01 35.083c-.243.412-.753 2.325-1.134 4.25-1.414 7.151-1.2 6.946-6.594 6.308-4.716-.559-5.112-.415-8.383 3.054-1.888 2.002-3.621 4.877-3.85 6.389-.236 1.561-.481.55-.566-2.34-.13-4.413-.489-5.244-2.697-6.25-3.255-1.484-8.644-1.487-11.892-.007-3.938 1.795-5.81 5.593-6.329 12.843-.653 9.134.406 10.104 10.589 9.701l7.677-.305.91-5.446.909-5.447 1.091 4.121c1.772 6.688 2.738 7.299 11.181 7.076 8.363-.222 7.854.308 9.318-9.697a2419.22 2419.22 0 0 1 2.139-14.223c.654-4.247.925-8.41.603-9.25-.62-1.615-2.231-2.036-2.972-.777m-115.584 2.077c-.601 1.123-1.093 3.331-1.093 4.907 0 3.898-1.595 5.206-5.564 4.562-7.365-1.195-10.725 1.575-12.33 10.167-1.017 5.441.111 10.048 2.814 11.494 1.019.545 3.302.556 5.645.026 2.164-.49 4.948-.637 6.185-.328 1.237.309 2.255.176 2.262-.297.007-.472 1.138-7.579 2.515-15.793 1.527-9.116 2.143-15.295 1.58-15.858-.562-.562-1.347-.126-2.014 1.12m57.535.966c-.461.746-4.628 25.199-4.628 27.157 0 2.804 3.374 4.05 10.964 4.05 7.478 0 9.036-.618 9.036-3.582 0-.23-2.87-.418-6.378-.418-4.024 0-6.777-.481-7.46-1.305-.785-.945-.572-4.595.772-13.25 1.02-6.57 1.65-12.283 1.401-12.695-.598-.991-3.086-.962-3.707.043M6.48 190.25c-.252.688-1.349 6.594-2.437 13.125C1.461 218.863 1.532 219 12.119 219c5.992 0 7.942-.319 7.635-1.25-.262-.791-2.861-1.358-7.084-1.546-6.519-.289-6.669-.356-6.635-3 .019-1.487.685-6.304 1.48-10.704.795-4.4 1.455-9.238 1.465-10.75.02-2.786-1.661-3.794-2.5-1.5m224.789 6.564c-1.953 1.239 1.125 20.193 3.616 22.257 2.164 1.795 1.578 3.565-2.712 8.186-3.618 3.896-1.682 5.557 2.898 2.486 2.565-1.719 5.128-5.567 10.173-15.271 6.497-12.498 7.821-17.304 5.02-18.224-.747-.245-3.053 3.407-5.83 9.23-2.605 5.464-5.1 9.467-5.764 9.246-.643-.214-1.522-2.602-1.953-5.306-2.125-13.349-2.588-14.419-5.448-12.604m-203.6 2.231c-2.812 2.213-4.655 7.353-4.663 13.014-.008 4.761 1.947 7.243 5.579 7.084 1.603-.07 4.984-.202 7.513-.293l4.598-.165 1.247-9.536c1.157-8.839 1.117-9.632-.539-10.843-2.828-2.068-10.705-1.644-13.735.739m20.491-.344c-1.548 2.892-3.014 15.501-2.088 17.963 1.074 2.859 4.178 3.739 8.343 2.364 1.861-.614 4.477-.842 5.812-.507 2.594.651 2.515.904 5.339-17.193.44-2.816-.9-5.327-2.167-4.06-.257.257-1.053 4.142-1.767 8.634-.715 4.491-1.77 8.636-2.345 9.211-.575.575-2.891 1.292-5.148 1.595-5.24.703-5.676-.342-4.379-10.478.996-7.785.297-11.074-1.6-7.529m30.84-.687c-.825.54-2.68.735-4.123.433-1.806-.379-2.806-.074-3.209.976-1.02 2.657-3.001 18.578-2.388 19.19 1.383 1.384 2.628-1.033 3.284-6.379 1.276-10.392 2.546-12.193 8.619-12.219 4.632-.019 5.248 1.597 3.862 10.14-1.334 8.217-1.31 8.845.33 8.845 2.439 0 4.75-17.94 2.639-20.483-1.414-1.704-6.729-2.001-9.014-.503m38.547-.09c-.706 1.143-3.544 16.606-3.546 19.326 0 .963.638 1.75 1.42 1.75 1.429 0 1.951-1.716 3.044-10 .812-6.156 1.577-7.066 7.121-8.474 2.647-.672 4.985-1.74 5.197-2.374.485-1.457-2.547-1.479-6.655-.047-2.351.82-3.529.807-4.56-.048-.924-.767-1.602-.812-2.021-.133m16.983.027c-.382.619-.139 5.198.541 10.175.932 6.82 1.692 9.333 3.083 10.202 2.521 1.574 2.341 2.689-1.228 7.615-3.614 4.99-3.244 6.132 1.006 3.106 2.092-1.491 5.085-6.243 9.557-15.177 3.581-7.155 6.511-13.877 6.511-14.94 0-4.111-2.162-1.552-6.461 7.647-5.81 12.432-7.394 12.508-9.266.445-1.316-8.478-2.434-11.19-3.743-9.073M28.666 202.75c-4.881 9.69-1.643 16.738 6.01 13.08 2.362-1.128 3.024-2.33 4.045-7.34.671-3.294 1.023-6.552.781-7.24-.264-.75-2.241-1.25-4.945-1.25-3.913 0-4.688.362-5.891 2.75m67.806.662c-.809 1.938-1.472 5.322-1.472 7.521 0 5.115 2.43 6.74 7.549 5.051 3.827-1.263 4.783-3.412 4.888-10.984l.063-4.5-4.778-.306c-4.625-.296-4.824-.194-6.25 3.218m97.843-2.396c-2.516 1.004-3.772 3.107-4.666 7.816-1.189 6.268 2.994 9.208 8.057 5.661 1.565-1.095 2.341-3.019 2.844-7.046.38-3.046.525-5.687.321-5.869-1.141-1.015-4.661-1.317-6.556-.562m21.933-.215c-2.654.399-3.776 2.245-4.676 7.699-.906 5.479.937 7.986 5.182 7.054 4.164-.915 4.932-2.072 5.748-8.669.662-5.353.585-5.633-1.654-6.019-1.291-.222-3.361-.252-4.6-.065" fill="#1976D2" fill-rule="evenodd"/><path fill-opacity=".655" d="M119.676 23.446c-7.383 2.119-16.213 8.825-19.183 14.568-.727 1.405-1.637 4.239-2.024 6.298-.434 2.316-1.515 4.172-2.835 4.871-1.174.62-4.022 2.667-6.329 4.547C84.778 57.422 76.5 61 72.489 61c-4.852 0-2.145 5.38 4.097 8.141C79.013 70.215 81 71.532 81 72.068s-1.237 2.846-2.75 5.132c-2.431 3.675-2.75 5.096-2.75 12.251 0 6.878-.338 8.523-2.25 10.956-3.156 4.015-3.087 12.124.162 18.993 1.326 2.805 2.679 6.696 3.007 8.646.803 4.786 5.927 10.931 7.686 9.217 1.021-.996.843-1.69-.918-3.564-2.562-2.727-2.741-5.112-.681-9.063.822-1.576 1.494-3.681 1.494-4.678 0-3.032 4.661-5.716 12.275-7.068 6.558-1.164 7.72-1.749 12.587-6.336 2.949-2.78 6.261-6.966 7.36-9.304 1.209-2.572 2.676-4.25 3.714-4.25 2.044 0 5.57-3.627 6.495-6.682.601-1.984.227-2.234-4.135-2.759-2.638-.317-6.725-1.025-9.084-1.574l-4.287-.997-5.385 5.515c-2.984 3.056-5.677 6.845-6.04 8.495-.359 1.638-1.069 3.236-1.577 3.55-.508.313-.923 1.443-.923 2.511 0 2.273-1.648 2.424-9.062.834l-5.16-1.106.65-4.063c.933-5.832 7.14-16.543 12.369-21.345 4.329-3.975 4.448-4.238 3.346-7.399-3.062-8.782.853-23.433 7.829-29.303l3.235-2.722 3.8 3.433c3.964 3.581 8.706 4.987 25.906 7.685 8.249 1.294 11.689 3.689 12.723 8.858.541 2.705.934 2.963 4.23 2.776 3.363-.192 3.656.018 3.93 2.805.388 3.959-2.845 7.488-6.86 7.488-2.209 0-3.217.608-3.875 2.339-1.126 2.963-6.241 7.288-11.826 10.002-3.846 1.868-4.295 2.441-4.032 5.131.222 2.262.864 3.109 2.538 3.346 2.512.357 5.259 3.703 5.259 6.405 0 2.722 1.618 2.114 2.953-1.109C145.534 88.882 154.868 82 160.738 82c1.549 0 3.845-.72 5.102-1.6 1.256-.881 3.123-1.381 4.147-1.114 2.2.576 1.793-1.192-1.301-5.653l-1.988-2.866 7.171.72c6.768.68 7.366.571 10.651-1.934 1.914-1.46 3.48-3.382 3.48-4.271 0-.888-.263-1.353-.584-1.031-1.127 1.127-11.83-3.306-16.199-6.71-2.761-2.151-6.415-3.856-9.75-4.548-5.636-1.17-5.471-.956-6.966-8.993-.256-1.375-2.057-5.732-4.004-9.681-4.641-9.42-7.926-11.556-18.397-11.962-4.401-.171-9.63.287-12.424 1.089m15.805 29.467c.522 2.376.26 3.035-1.421 3.568-2.582.82-2.595 1.725-.056 4.023 1.656 1.498 2.438 1.616 4.5.676 4.43-2.018 2.664-11.18-2.155-11.18-1.145 0-1.354.701-.868 2.913M103.12 55.09c-1.171 2.646-1.16 3.299.079 4.537 1.904 1.904 4.664.765 5.417-2.235 1.423-5.667-3.157-7.585-5.496-2.302m68.912 34.595c-.018 5.051-.714 12.426-1.548 16.389-1.904 9.051-6.912 18.744-10.097 19.544-1.274.319-2.579 1.413-2.902 2.43-1.198 3.774-6.273 3.162-16.332-1.97-4.626-2.36-4.574-2.151-3.075-12.287.895-6.051.824-7.779-.419-10.163l-1.498-2.871-1.075 3.871c-.591 2.13-1.077 4.419-1.08 5.087-.009 1.857-3.434 3.285-7.881 3.285-4.564 0-5.597-1.087-5.613-5.907-.007-1.873-.462-3.534-1.012-3.69-.88-.249-9.5 9.705-9.5 10.969 0 .269 1.013.633 2.25.808 2.514.357 7.063 8.004 8.109 13.629.487 2.623.142 3.781-1.666 5.589-1.254 1.254-2.849 4.178-3.544 6.498-2.064 6.888-3.961 8.104-12.649 8.104-4.125 0-7.5.377-7.5.838 0 .46 2.439 2.032 5.421 3.492 16.078 7.872 33.598 7.737 49.685-.383 7.306-3.689 18.267-14.348 22.087-21.479 4.543-8.483 7.14-19.786 6.54-28.458-.568-8.196-2.953-17.6-5.227-20.604-1.291-1.706-1.446-.941-1.474 7.279m-59.467 60.911c-.865 3.448.923 5.404 4.941 5.404 2.756 0 3.347-.426 3.816-2.75.659-3.267-1.382-5.25-5.405-5.25-2.073 0-2.852.603-3.352 2.596m19.102-.929c-.367.366-.667 1.977-.667 3.579 0 2.759.172 2.877 3.25 2.233 6.69-1.4 7.826-6.479 1.448-6.479-1.851 0-3.665.3-4.031.667m94.791 41.083c-1.282 7.599-1.24 7.552-6.06 6.891-5.601-.768-8.699.669-10.759 4.99-2.122 4.45-2.16 12.705-.068 14.798 1.673 1.672 5.636 1.95 8.929.626 1.1-.442 2.756-.412 3.679.068 1.422.738 1.834.069 2.694-4.376 4.011-20.734 4.753-26.747 3.301-26.747-.596 0-1.368 1.688-1.716 3.75m-56.684-1.193c-.326.526-1.575 6.707-2.777 13.734-2.685 15.698-2.68 15.709 7.625 15.709 4.252 0 7.378-.424 7.378-1 0-.553-2.626-1-5.878-1-8.512 0-8.755-.529-6.65-14.456 1.611-10.659 1.719-15.28.302-12.987m20.895 9.488c-4.032 3.173-6.093 13.426-3.624 18.039.926 1.73 1.866 1.901 8.25 1.503l7.205-.45 1.203-6.319c1.944-10.205 1.715-12.709-1.268-13.843-4.129-1.57-8.969-1.129-11.766 1.07m41.337 2.205c.013 7.156 1.941 15.244 4.047 16.972 2.482 2.036 2.03 4.318-1.64 8.278-3.488 3.763-2.098 4.524 1.693.927C239.138 224.55 251 202.262 251 199.441c0-3.12-1.768-1.12-5.057 5.72-6.529 13.581-9.273 14.636-10.442 4.019-.932-8.466-1.559-11.18-2.58-11.18-.507 0-.918 1.463-.915 3.25m-39.896-.36c-2.673 2.673-4.571 9.891-3.447 13.109 1.156 3.309 6.903 3.982 10.327 1.21 2.019-1.635 2.346-2.825 2.422-8.8l.088-6.909-3.693-.307c-2.653-.221-4.257.257-5.697 1.697m21.1.57c-2.602 3.308-3.823 10.526-2.271 13.426 1.46 2.729 8.007 2.961 10.289.364 1.759-2.001 3.802-12.584 2.756-14.276-.383-.619-2.489-1.366-4.681-1.66-3.459-.464-4.262-.181-6.093 2.146" fill="#1976D2" fill-rule="evenodd"/></svg>